<svg width="88" height="88" viewBox="0 0 88 88" fill="none" xmlns="http://www.w3.org/2000/svg">
<path d="M21.664 41.8824C22.5716 41.8824 23.3074 41.1466 23.3074 40.239C23.3074 39.3313 22.5716 38.5955 21.664 38.5955C20.7563 38.5955 20.0205 39.3313 20.0205 40.239C20.0205 41.1466 20.7563 41.8824 21.664 41.8824Z" fill="#0F1511"/>
<path d="M34.5798 40.8549C35.0336 40.8549 35.4015 40.487 35.4015 40.0331C35.4015 39.5793 35.0336 39.2114 34.5798 39.2114C34.126 39.2114 33.7581 39.5793 33.7581 40.0331C33.7581 40.487 34.126 40.8549 34.5798 40.8549Z" fill="#0F1511"/>
<path d="M47.1901 41.8824C48.0977 41.8824 48.8335 41.1466 48.8335 40.239C48.8335 39.3313 48.0977 38.5955 47.1901 38.5955C46.2824 38.5955 45.5466 39.3313 45.5466 40.239C45.5466 41.1466 46.2824 41.8824 47.1901 41.8824Z" fill="#0F1511"/>
<path d="M28.0471 41.8824C28.9548 41.8824 29.6906 41.1466 29.6906 40.239C29.6906 39.3313 28.9548 38.5955 28.0471 38.5955C27.1395 38.5955 26.4037 39.3313 26.4037 40.239C26.4037 41.1466 27.1395 41.8824 28.0471 41.8824Z" fill="#0F1511"/>
<path d="M53.6429 41.0615C54.0967 41.0615 54.4646 40.6936 54.4646 40.2397C54.4646 39.7859 54.0967 39.418 53.6429 39.418C53.1891 39.418 52.8212 39.7859 52.8212 40.2397C52.8212 40.6936 53.1891 41.0615 53.6429 41.0615Z" fill="#0F1511"/>
<path d="M66.3363 41.8824C67.244 41.8824 67.9798 41.1466 67.9798 40.239C67.9798 39.3313 67.244 38.5955 66.3363 38.5955C65.4287 38.5955 64.6929 39.3313 64.6929 40.239C64.6929 41.1466 65.4287 41.8824 66.3363 41.8824Z" fill="#0F1511"/>
<path d="M34.427 66.0418C35.3347 66.0418 36.0705 65.306 36.0705 64.3984C36.0705 63.4907 35.3347 62.7549 34.427 62.7549C33.5194 62.7549 32.7836 63.4907 32.7836 64.3984C32.7836 65.306 33.5194 66.0418 34.427 66.0418Z" fill="#0F1511"/>
<path d="M47.1901 66.0418C48.0977 66.0418 48.8335 65.306 48.8335 64.3984C48.8335 63.4907 48.0977 62.7549 47.1901 62.7549C46.2824 62.7549 45.5466 63.4907 45.5466 64.3984C45.5466 65.306 46.2824 66.0418 47.1901 66.0418Z" fill="#0F1511"/>
<path d="M40.8102 66.0418C41.7178 66.0418 42.4536 65.306 42.4536 64.3984C42.4536 63.4907 41.7178 62.7549 40.8102 62.7549C39.9025 62.7549 39.1667 63.4907 39.1667 64.3984C39.1667 65.306 39.9025 66.0418 40.8102 66.0418Z" fill="#0F1511"/>
<path d="M53.5734 66.0418C54.481 66.0418 55.2168 65.306 55.2168 64.3984C55.2168 63.4907 54.481 62.7549 53.5734 62.7549C52.6657 62.7549 51.9299 63.4907 51.9299 64.3984C51.9299 65.306 52.6657 66.0418 53.5734 66.0418Z" fill="#0F1511"/>
<path d="M21.664 53.9621C22.5716 53.9621 23.3074 53.2263 23.3074 52.3187C23.3074 51.411 22.5716 50.6752 21.664 50.6752C20.7563 50.6752 20.0205 51.411 20.0205 52.3187C20.0205 53.2263 20.7563 53.9621 21.664 53.9621Z" fill="#0F1511"/>
<path d="M34.427 53.9621C35.3347 53.9621 36.0705 53.2263 36.0705 52.3187C36.0705 51.411 35.3347 50.6752 34.427 50.6752C33.5194 50.6752 32.7836 51.411 32.7836 52.3187C32.7836 53.2263 33.5194 53.9621 34.427 53.9621Z" fill="#0F1511"/>
<path d="M47.1901 53.9621C48.0977 53.9621 48.8335 53.2263 48.8335 52.3187C48.8335 51.411 48.0977 50.6752 47.1901 50.6752C46.2824 50.6752 45.5466 51.411 45.5466 52.3187C45.5466 53.2263 46.2824 53.9621 47.1901 53.9621Z" fill="#0F1511"/>
<path d="M59.9531 53.9621C60.8608 53.9621 61.5966 53.2263 61.5966 52.3187C61.5966 51.411 60.8608 50.6752 59.9531 50.6752C59.0455 50.6752 58.3097 51.411 58.3097 52.3187C58.3097 53.2263 59.0455 53.9621 59.9531 53.9621Z" fill="#0F1511"/>
<path d="M28.0471 53.9621C28.9548 53.9621 29.6906 53.2263 29.6906 52.3187C29.6906 51.411 28.9548 50.6752 28.0471 50.6752C27.1395 50.6752 26.4037 51.411 26.4037 52.3187C26.4037 53.2263 27.1395 53.9621 28.0471 53.9621Z" fill="#0F1511"/>
<path d="M40.8102 53.9621C41.7178 53.9621 42.4536 53.2263 42.4536 52.3187C42.4536 51.411 41.7178 50.6752 40.8102 50.6752C39.9025 50.6752 39.1667 51.411 39.1667 52.3187C39.1667 53.2263 39.9025 53.9621 40.8102 53.9621Z" fill="#0F1511"/>
<path d="M53.5734 53.9621C54.481 53.9621 55.2168 53.2263 55.2168 52.3187C55.2168 51.411 54.481 50.6752 53.5734 50.6752C52.6657 50.6752 51.9299 51.411 51.9299 52.3187C51.9299 53.2263 52.6657 53.9621 53.5734 53.9621Z" fill="#0F1511"/>
<path d="M66.3363 53.9621C67.244 53.9621 67.9798 53.2263 67.9798 52.3187C67.9798 51.411 67.244 50.6752 66.3363 50.6752C65.4287 50.6752 64.6929 51.411 64.6929 52.3187C64.6929 53.2263 65.4287 53.9621 66.3363 53.9621Z" fill="#0F1511"/>
<path d="M21.6668 35.7516C22.1206 35.7516 22.4885 35.3837 22.4885 34.9299C22.4885 34.4761 22.1206 34.1082 21.6668 34.1082C21.213 34.1082 20.8451 34.4761 20.8451 34.9299C20.8451 35.3837 21.213 35.7516 21.6668 35.7516Z" fill="#0F1511"/>
<path d="M28.0467 35.7516C28.5005 35.7516 28.8684 35.3837 28.8684 34.9299C28.8684 34.4761 28.5005 34.1082 28.0467 34.1082C27.5929 34.1082 27.225 34.4761 27.225 34.9299C27.225 35.3837 27.5929 35.7516 28.0467 35.7516Z" fill="#0F1511"/>
<path d="M28.0467 29.8051C28.5005 29.8051 28.8684 29.4372 28.8684 28.9834C28.8684 28.5295 28.5005 28.1617 28.0467 28.1617C27.5929 28.1617 27.225 28.5295 27.225 28.9834C27.225 29.4372 27.5929 29.8051 28.0467 29.8051Z" fill="#0F1511"/>
<path d="M28.0467 23.6018C28.5005 23.6018 28.8684 23.2339 28.8684 22.7801C28.8684 22.3263 28.5005 21.9584 28.0467 21.9584C27.5929 21.9584 27.225 22.3263 27.225 22.7801C27.225 23.2339 27.5929 23.6018 28.0467 23.6018Z" fill="#0F1511"/>
<path d="M34.5798 35.7516C35.0336 35.7516 35.4015 35.3837 35.4015 34.9299C35.4015 34.4761 35.0336 34.1082 34.5798 34.1082C34.126 34.1082 33.7581 34.4761 33.7581 34.9299C33.7581 35.3837 34.126 35.7516 34.5798 35.7516Z" fill="#0F1511"/>
<path d="M53.6429 35.665C54.0967 35.665 54.4646 35.2971 54.4646 34.8432C54.4646 34.3894 54.0967 34.0215 53.6429 34.0215C53.1891 34.0215 52.8212 34.3894 52.8212 34.8432C52.8212 35.2971 53.1891 35.665 53.6429 35.665Z" fill="#0F1511"/>
<path d="M66.3359 35.665C66.7897 35.665 67.1576 35.2971 67.1576 34.8432C67.1576 34.3894 66.7897 34.0215 66.3359 34.0215C65.8821 34.0215 65.5142 34.3894 65.5142 34.8432C65.5142 35.2971 65.8821 35.665 66.3359 35.665Z" fill="#0F1511"/>
<path d="M34.427 60.0019C35.3347 60.0019 36.0705 59.2661 36.0705 58.3585C36.0705 57.4508 35.3347 56.715 34.427 56.715C33.5194 56.715 32.7836 57.4508 32.7836 58.3585C32.7836 59.2661 33.5194 60.0019 34.427 60.0019Z" fill="#0F1511"/>
<path d="M47.1901 60.0019C48.0977 60.0019 48.8335 59.2661 48.8335 58.3585C48.8335 57.4508 48.0977 56.715 47.1901 56.715C46.2824 56.715 45.5466 57.4508 45.5466 58.3585C45.5466 59.2661 46.2824 60.0019 47.1901 60.0019Z" fill="#0F1511"/>
<path d="M59.9531 60.0019C60.8608 60.0019 61.5966 59.2661 61.5966 58.3585C61.5966 57.4508 60.8608 56.715 59.9531 56.715C59.0455 56.715 58.3097 57.4508 58.3097 58.3585C58.3097 59.2661 59.0455 60.0019 59.9531 60.0019Z" fill="#0F1511"/>
<path d="M28.0471 60.0019C28.9548 60.0019 29.6906 59.2661 29.6906 58.3585C29.6906 57.4508 28.9548 56.715 28.0471 56.715C27.1395 56.715 26.4037 57.4508 26.4037 58.3585C26.4037 59.2661 27.1395 60.0019 28.0471 60.0019Z" fill="#0F1511"/>
<path d="M40.8102 60.0019C41.7178 60.0019 42.4536 59.2661 42.4536 58.3585C42.4536 57.4508 41.7178 56.715 40.8102 56.715C39.9025 56.715 39.1667 57.4508 39.1667 58.3585C39.1667 59.2661 39.9025 60.0019 40.8102 60.0019Z" fill="#0F1511"/>
<path d="M53.5734 60.0019C54.481 60.0019 55.2168 59.2661 55.2168 58.3585C55.2168 57.4508 54.481 56.715 53.5734 56.715C52.6657 56.715 51.9299 57.4508 51.9299 58.3585C51.9299 59.2661 52.6657 60.0019 53.5734 60.0019Z" fill="#0F1511"/>
<path d="M21.664 47.9223C22.5716 47.9223 23.3074 47.1865 23.3074 46.2788C23.3074 45.3712 22.5716 44.6354 21.664 44.6354C20.7563 44.6354 20.0205 45.3712 20.0205 46.2788C20.0205 47.1865 20.7563 47.9223 21.664 47.9223Z" fill="#0F1511"/>
<path d="M34.427 47.9223C35.3347 47.9223 36.0705 47.1865 36.0705 46.2788C36.0705 45.3712 35.3347 44.6354 34.427 44.6354C33.5194 44.6354 32.7836 45.3712 32.7836 46.2788C32.7836 47.1865 33.5194 47.9223 34.427 47.9223Z" fill="#0F1511"/>
<path d="M47.1901 47.9223C48.0977 47.9223 48.8335 47.1865 48.8335 46.2788C48.8335 45.3712 48.0977 44.6354 47.1901 44.6354C46.2824 44.6354 45.5466 45.3712 45.5466 46.2788C45.5466 47.1865 46.2824 47.9223 47.1901 47.9223Z" fill="#0F1511"/>
<path d="M59.9531 47.9223C60.8608 47.9223 61.5966 47.1865 61.5966 46.2788C61.5966 45.3712 60.8608 44.6354 59.9531 44.6354C59.0455 44.6354 58.3097 45.3712 58.3097 46.2788C58.3097 47.1865 59.0455 47.9223 59.9531 47.9223Z" fill="#0F1511"/>
<path d="M28.0471 47.9223C28.9548 47.9223 29.6906 47.1865 29.6906 46.2788C29.6906 45.3712 28.9548 44.6354 28.0471 44.6354C27.1395 44.6354 26.4037 45.3712 26.4037 46.2788C26.4037 47.1865 27.1395 47.9223 28.0471 47.9223Z" fill="#0F1511"/>
<path d="M40.8102 47.9223C41.7178 47.9223 42.4536 47.1865 42.4536 46.2788C42.4536 45.3712 41.7178 44.6354 40.8102 44.6354C39.9025 44.6354 39.1667 45.3712 39.1667 46.2788C39.1667 47.1865 39.9025 47.9223 40.8102 47.9223Z" fill="#0F1511"/>
<path d="M53.5734 47.9223C54.481 47.9223 55.2168 47.1865 55.2168 46.2788C55.2168 45.3712 54.481 44.6354 53.5734 44.6354C52.6657 44.6354 51.9299 45.3712 51.9299 46.2788C51.9299 47.1865 52.6657 47.9223 53.5734 47.9223Z" fill="#0F1511"/>
<path d="M66.3363 47.9223C67.244 47.9223 67.9798 47.1865 67.9798 46.2788C67.9798 45.3712 67.244 44.6354 66.3363 44.6354C65.4287 44.6354 64.6929 45.3712 64.6929 46.2788C64.6929 47.1865 65.4287 47.9223 66.3363 47.9223Z" fill="#0F1511"/>
</svg>
